<mxfile host="app.diagrams.net" agent="Mozilla/5.0 (Windows NT 10.0; Win64; x64) AppleWebKit/537.36 (KHTML, like Gecko) Chrome/131.0.0.0 Safari/537.36" version="25.0.3">
  <diagram name="Page-1" id="dRDSWtf1oD1CEoidNp38">
    <mxGraphModel dx="1900" dy="557" grid="1" gridSize="10" guides="0" tooltips="1" connect="1" arrows="1" fold="1" page="1" pageScale="1" pageWidth="850" pageHeight="1100" math="0" shadow="0">
      <root>
        <mxCell id="0" />
        <mxCell id="1" parent="0" />
        <mxCell id="s7wt4-SgqITKIH4yPcW7-1" value="" style="rounded=0;whiteSpace=wrap;html=1;rotation=90;" parent="1" vertex="1">
          <mxGeometry x="-495" y="445" width="960" height="320" as="geometry" />
        </mxCell>
        <mxCell id="s7wt4-SgqITKIH4yPcW7-2" value="Add Trainer" style="ellipse;whiteSpace=wrap;html=1;" parent="1" vertex="1">
          <mxGeometry x="-150" y="200" width="110" height="50" as="geometry" />
        </mxCell>
        <mxCell id="s7wt4-SgqITKIH4yPcW7-11" value="Add Mem&lt;span style=&quot;color: rgba(0, 0, 0, 0); font-family: monospace; font-size: 0px; text-align: start; text-wrap-mode: nowrap;&quot;&gt;%3CmxGraphModel%3E%3Croot%3E%3CmxCell%20id%3D%220%22%2F%3E%3CmxCell%20id%3D%221%22%20parent%3D%220%22%2F%3E%3CmxCell%20id%3D%222%22%20value%3D%22Add%20Trainer%22%20style%3D%22ellipse%3BwhiteSpace%3Dwrap%3Bhtml%3D1%3B%22%20vertex%3D%221%22%20parent%3D%221%22%3E%3CmxGeometry%20x%3D%22170%22%20y%3D%22130%22%20width%3D%22110%22%20height%3D%2250%22%20as%3D%22geometry%22%2F%3E%3C%2FmxCell%3E%3C%2Froot%3E%3C%2FmxGraphModel%3E&lt;/span&gt;ber" style="ellipse;whiteSpace=wrap;html=1;" parent="1" vertex="1">
          <mxGeometry x="-150" y="280" width="110" height="50" as="geometry" />
        </mxCell>
        <mxCell id="s7wt4-SgqITKIH4yPcW7-12" value="Add Cleaning Staff" style="ellipse;whiteSpace=wrap;html=1;" parent="1" vertex="1">
          <mxGeometry x="-150" y="352" width="110" height="50" as="geometry" />
        </mxCell>
        <mxCell id="s7wt4-SgqITKIH4yPcW7-13" value="Remove Trainer" style="ellipse;whiteSpace=wrap;html=1;" parent="1" vertex="1">
          <mxGeometry x="-150" y="416" width="110" height="50" as="geometry" />
        </mxCell>
        <mxCell id="s7wt4-SgqITKIH4yPcW7-14" value="Remove Member" style="ellipse;whiteSpace=wrap;html=1;" parent="1" vertex="1">
          <mxGeometry x="-150" y="480" width="110" height="50" as="geometry" />
        </mxCell>
        <mxCell id="s7wt4-SgqITKIH4yPcW7-15" value="Remove Cleaning Staff" style="ellipse;whiteSpace=wrap;html=1;" parent="1" vertex="1">
          <mxGeometry x="-150" y="547" width="110" height="50" as="geometry" />
        </mxCell>
        <mxCell id="s7wt4-SgqITKIH4yPcW7-16" value="Assign Trainer" style="ellipse;whiteSpace=wrap;html=1;" parent="1" vertex="1">
          <mxGeometry x="-150" y="610" width="110" height="50" as="geometry" />
        </mxCell>
        <mxCell id="s7wt4-SgqITKIH4yPcW7-17" value="Pay Salary" style="ellipse;whiteSpace=wrap;html=1;" parent="1" vertex="1">
          <mxGeometry x="-150" y="674" width="110" height="50" as="geometry" />
        </mxCell>
        <mxCell id="s7wt4-SgqITKIH4yPcW7-18" value="Collect Fees" style="ellipse;whiteSpace=wrap;html=1;" parent="1" vertex="1">
          <mxGeometry x="-150" y="740" width="110" height="50" as="geometry" />
        </mxCell>
        <mxCell id="s7wt4-SgqITKIH4yPcW7-19" value="View Member" style="ellipse;whiteSpace=wrap;html=1;" parent="1" vertex="1">
          <mxGeometry y="200" width="110" height="50" as="geometry" />
        </mxCell>
        <mxCell id="s7wt4-SgqITKIH4yPcW7-20" value="Assign Task" style="ellipse;whiteSpace=wrap;html=1;" parent="1" vertex="1">
          <mxGeometry y="261" width="110" height="50" as="geometry" />
        </mxCell>
        <mxCell id="s7wt4-SgqITKIH4yPcW7-21" value="Add content" style="ellipse;whiteSpace=wrap;html=1;" parent="1" vertex="1">
          <mxGeometry y="322" width="110" height="50" as="geometry" />
        </mxCell>
        <mxCell id="s7wt4-SgqITKIH4yPcW7-22" value="Attendance" style="ellipse;whiteSpace=wrap;html=1;" parent="1" vertex="1">
          <mxGeometry x="-1" y="379" width="110" height="50" as="geometry" />
        </mxCell>
        <mxCell id="s7wt4-SgqITKIH4yPcW7-23" value="Request for leave" style="ellipse;whiteSpace=wrap;html=1;" parent="1" vertex="1">
          <mxGeometry y="552" width="110" height="50" as="geometry" />
        </mxCell>
        <mxCell id="s7wt4-SgqITKIH4yPcW7-24" value="Request to Overtime" style="ellipse;whiteSpace=wrap;html=1;" parent="1" vertex="1">
          <mxGeometry x="1" y="611" width="110" height="50" as="geometry" />
        </mxCell>
        <mxCell id="s7wt4-SgqITKIH4yPcW7-25" value="Task Completion Update" style="ellipse;whiteSpace=wrap;html=1;" parent="1" vertex="1">
          <mxGeometry x="1" y="667" width="110" height="50" as="geometry" />
        </mxCell>
        <mxCell id="s7wt4-SgqITKIH4yPcW7-26" value="Registration" style="ellipse;whiteSpace=wrap;html=1;" parent="1" vertex="1">
          <mxGeometry x="1" y="730" width="110" height="50" as="geometry" />
        </mxCell>
        <mxCell id="s7wt4-SgqITKIH4yPcW7-27" value="Pay Fees" style="ellipse;whiteSpace=wrap;html=1;" parent="1" vertex="1">
          <mxGeometry x="1" y="788" width="110" height="50" as="geometry" />
        </mxCell>
        <mxCell id="s7wt4-SgqITKIH4yPcW7-28" value="View Diet Plan" style="ellipse;whiteSpace=wrap;html=1;" parent="1" vertex="1">
          <mxGeometry x="1" y="846" width="110" height="50" as="geometry" />
        </mxCell>
        <mxCell id="s7wt4-SgqITKIH4yPcW7-29" value="View Exercise" style="ellipse;whiteSpace=wrap;html=1;" parent="1" vertex="1">
          <mxGeometry x="1" y="902" width="110" height="50" as="geometry" />
        </mxCell>
        <mxCell id="s7wt4-SgqITKIH4yPcW7-30" value="View Profile History" style="ellipse;whiteSpace=wrap;html=1;" parent="1" vertex="1">
          <mxGeometry y="959" width="110" height="50" as="geometry" />
        </mxCell>
        <mxCell id="s7wt4-SgqITKIH4yPcW7-31" value="Gym Details" style="ellipse;whiteSpace=wrap;html=1;" parent="1" vertex="1">
          <mxGeometry y="1018" width="110" height="50" as="geometry" />
        </mxCell>
        <mxCell id="s7wt4-SgqITKIH4yPcW7-32" value="Manager" style="shape=umlActor;verticalLabelPosition=bottom;verticalAlign=top;html=1;outlineConnect=0;" parent="1" vertex="1">
          <mxGeometry x="-380" y="440" width="30" height="60" as="geometry" />
        </mxCell>
        <mxCell id="s7wt4-SgqITKIH4yPcW7-35" value="" style="endArrow=none;html=1;rounded=0;entryX=0;entryY=0.5;entryDx=0;entryDy=0;exitX=1;exitY=0.3333333333333333;exitDx=0;exitDy=0;exitPerimeter=0;" parent="1" source="s7wt4-SgqITKIH4yPcW7-32" target="s7wt4-SgqITKIH4yPcW7-2" edge="1">
          <mxGeometry width="50" height="50" relative="1" as="geometry">
            <mxPoint x="-340" y="460" as="sourcePoint" />
            <mxPoint x="-290" y="410" as="targetPoint" />
          </mxGeometry>
        </mxCell>
        <mxCell id="s7wt4-SgqITKIH4yPcW7-37" value="" style="endArrow=none;html=1;rounded=0;exitX=1;exitY=0.3333333333333333;exitDx=0;exitDy=0;exitPerimeter=0;entryX=0;entryY=0.5;entryDx=0;entryDy=0;" parent="1" source="s7wt4-SgqITKIH4yPcW7-32" target="s7wt4-SgqITKIH4yPcW7-11" edge="1">
          <mxGeometry width="50" height="50" relative="1" as="geometry">
            <mxPoint x="-330" y="480" as="sourcePoint" />
            <mxPoint x="-280" y="430" as="targetPoint" />
          </mxGeometry>
        </mxCell>
        <mxCell id="s7wt4-SgqITKIH4yPcW7-38" value="" style="endArrow=none;html=1;rounded=0;entryX=0;entryY=0.5;entryDx=0;entryDy=0;" parent="1" target="s7wt4-SgqITKIH4yPcW7-12" edge="1">
          <mxGeometry width="50" height="50" relative="1" as="geometry">
            <mxPoint x="-350" y="460" as="sourcePoint" />
            <mxPoint x="-360" y="510" as="targetPoint" />
          </mxGeometry>
        </mxCell>
        <mxCell id="s7wt4-SgqITKIH4yPcW7-39" value="" style="endArrow=none;html=1;rounded=0;entryX=1;entryY=0.3333333333333333;entryDx=0;entryDy=0;entryPerimeter=0;exitX=0;exitY=0.5;exitDx=0;exitDy=0;" parent="1" source="s7wt4-SgqITKIH4yPcW7-13" target="s7wt4-SgqITKIH4yPcW7-32" edge="1">
          <mxGeometry width="50" height="50" relative="1" as="geometry">
            <mxPoint x="-350" y="540" as="sourcePoint" />
            <mxPoint x="-300" y="490" as="targetPoint" />
          </mxGeometry>
        </mxCell>
        <mxCell id="s7wt4-SgqITKIH4yPcW7-41" value="" style="endArrow=none;html=1;rounded=0;entryX=0;entryY=0.5;entryDx=0;entryDy=0;" parent="1" target="s7wt4-SgqITKIH4yPcW7-14" edge="1">
          <mxGeometry width="50" height="50" relative="1" as="geometry">
            <mxPoint x="-340" y="460" as="sourcePoint" />
            <mxPoint x="-300" y="500" as="targetPoint" />
          </mxGeometry>
        </mxCell>
        <mxCell id="s7wt4-SgqITKIH4yPcW7-43" value="" style="endArrow=none;html=1;rounded=0;exitX=0;exitY=0.5;exitDx=0;exitDy=0;" parent="1" source="s7wt4-SgqITKIH4yPcW7-15" edge="1">
          <mxGeometry width="50" height="50" relative="1" as="geometry">
            <mxPoint x="-260" y="580" as="sourcePoint" />
            <mxPoint x="-350" y="460" as="targetPoint" />
          </mxGeometry>
        </mxCell>
        <mxCell id="s7wt4-SgqITKIH4yPcW7-44" value="" style="endArrow=none;html=1;rounded=0;exitX=0;exitY=0.5;exitDx=0;exitDy=0;entryX=1;entryY=0.3333333333333333;entryDx=0;entryDy=0;entryPerimeter=0;" parent="1" source="s7wt4-SgqITKIH4yPcW7-16" target="s7wt4-SgqITKIH4yPcW7-32" edge="1">
          <mxGeometry width="50" height="50" relative="1" as="geometry">
            <mxPoint x="-410" y="610" as="sourcePoint" />
            <mxPoint x="-340" y="460" as="targetPoint" />
          </mxGeometry>
        </mxCell>
        <mxCell id="s7wt4-SgqITKIH4yPcW7-46" value="" style="endArrow=none;html=1;rounded=0;exitX=0;exitY=0.5;exitDx=0;exitDy=0;entryX=1;entryY=0.3333333333333333;entryDx=0;entryDy=0;entryPerimeter=0;" parent="1" source="s7wt4-SgqITKIH4yPcW7-17" target="s7wt4-SgqITKIH4yPcW7-32" edge="1">
          <mxGeometry width="50" height="50" relative="1" as="geometry">
            <mxPoint x="-520" y="600" as="sourcePoint" />
            <mxPoint x="-320" y="530" as="targetPoint" />
          </mxGeometry>
        </mxCell>
        <mxCell id="s7wt4-SgqITKIH4yPcW7-47" value="" style="endArrow=none;html=1;rounded=0;exitX=0;exitY=0.5;exitDx=0;exitDy=0;" parent="1" source="s7wt4-SgqITKIH4yPcW7-18" edge="1">
          <mxGeometry width="50" height="50" relative="1" as="geometry">
            <mxPoint x="-340" y="710" as="sourcePoint" />
            <mxPoint x="-350" y="460" as="targetPoint" />
          </mxGeometry>
        </mxCell>
        <mxCell id="s7wt4-SgqITKIH4yPcW7-48" value="Trainer" style="shape=umlActor;verticalLabelPosition=bottom;verticalAlign=top;html=1;outlineConnect=0;" parent="1" vertex="1">
          <mxGeometry x="290" y="340" width="30" height="60" as="geometry" />
        </mxCell>
        <mxCell id="s7wt4-SgqITKIH4yPcW7-49" value="Cleaning Staff" style="shape=umlActor;verticalLabelPosition=bottom;verticalAlign=top;html=1;outlineConnect=0;" parent="1" vertex="1">
          <mxGeometry x="290" y="580" width="30" height="60" as="geometry" />
        </mxCell>
        <mxCell id="s7wt4-SgqITKIH4yPcW7-50" value="Member" style="shape=umlActor;verticalLabelPosition=bottom;verticalAlign=top;html=1;outlineConnect=0;" parent="1" vertex="1">
          <mxGeometry x="290" y="860" width="30" height="60" as="geometry" />
        </mxCell>
        <mxCell id="s7wt4-SgqITKIH4yPcW7-58" value="" style="endArrow=none;html=1;rounded=0;exitX=1;exitY=0.5;exitDx=0;exitDy=0;entryX=0;entryY=0.3333333333333333;entryDx=0;entryDy=0;entryPerimeter=0;" parent="1" source="s7wt4-SgqITKIH4yPcW7-31" target="s7wt4-SgqITKIH4yPcW7-50" edge="1">
          <mxGeometry width="50" height="50" relative="1" as="geometry">
            <mxPoint x="231" y="933" as="sourcePoint" />
            <mxPoint x="280" y="940" as="targetPoint" />
          </mxGeometry>
        </mxCell>
        <mxCell id="s7wt4-SgqITKIH4yPcW7-59" value="" style="endArrow=none;html=1;rounded=0;exitX=1;exitY=0.5;exitDx=0;exitDy=0;entryX=0;entryY=0.3333333333333333;entryDx=0;entryDy=0;entryPerimeter=0;" parent="1" source="s7wt4-SgqITKIH4yPcW7-30" target="s7wt4-SgqITKIH4yPcW7-50" edge="1">
          <mxGeometry width="50" height="50" relative="1" as="geometry">
            <mxPoint x="31" y="1093" as="sourcePoint" />
            <mxPoint x="280" y="930" as="targetPoint" />
          </mxGeometry>
        </mxCell>
        <mxCell id="s7wt4-SgqITKIH4yPcW7-60" value="" style="endArrow=none;html=1;rounded=0;exitX=1;exitY=0.5;exitDx=0;exitDy=0;entryX=0;entryY=0.3333333333333333;entryDx=0;entryDy=0;entryPerimeter=0;" parent="1" source="s7wt4-SgqITKIH4yPcW7-29" target="s7wt4-SgqITKIH4yPcW7-50" edge="1">
          <mxGeometry width="50" height="50" relative="1" as="geometry">
            <mxPoint x="171" y="1073" as="sourcePoint" />
            <mxPoint x="190" y="990" as="targetPoint" />
          </mxGeometry>
        </mxCell>
        <mxCell id="s7wt4-SgqITKIH4yPcW7-61" value="" style="endArrow=none;html=1;rounded=0;exitX=1;exitY=0.5;exitDx=0;exitDy=0;entryX=0;entryY=0.3333333333333333;entryDx=0;entryDy=0;entryPerimeter=0;" parent="1" source="s7wt4-SgqITKIH4yPcW7-28" target="s7wt4-SgqITKIH4yPcW7-50" edge="1">
          <mxGeometry width="50" height="50" relative="1" as="geometry">
            <mxPoint x="291" y="1133" as="sourcePoint" />
            <mxPoint x="341" y="1083" as="targetPoint" />
          </mxGeometry>
        </mxCell>
        <mxCell id="s7wt4-SgqITKIH4yPcW7-62" value="" style="endArrow=none;html=1;rounded=0;entryX=0;entryY=0.3333333333333333;entryDx=0;entryDy=0;entryPerimeter=0;" parent="1" source="s7wt4-SgqITKIH4yPcW7-27" target="s7wt4-SgqITKIH4yPcW7-50" edge="1">
          <mxGeometry width="50" height="50" relative="1" as="geometry">
            <mxPoint x="221" y="863" as="sourcePoint" />
            <mxPoint x="281" y="883" as="targetPoint" />
          </mxGeometry>
        </mxCell>
        <mxCell id="s7wt4-SgqITKIH4yPcW7-63" value="" style="endArrow=none;html=1;rounded=0;entryX=1;entryY=0.5;entryDx=0;entryDy=0;exitX=0;exitY=0.3333333333333333;exitDx=0;exitDy=0;exitPerimeter=0;" parent="1" source="s7wt4-SgqITKIH4yPcW7-50" target="s7wt4-SgqITKIH4yPcW7-26" edge="1">
          <mxGeometry width="50" height="50" relative="1" as="geometry">
            <mxPoint x="281" y="883" as="sourcePoint" />
            <mxPoint x="131" y="893" as="targetPoint" />
          </mxGeometry>
        </mxCell>
        <mxCell id="s7wt4-SgqITKIH4yPcW7-65" value="" style="endArrow=none;html=1;rounded=0;exitX=1;exitY=0.5;exitDx=0;exitDy=0;entryX=0;entryY=0.3333333333333333;entryDx=0;entryDy=0;entryPerimeter=0;" parent="1" source="s7wt4-SgqITKIH4yPcW7-19" target="s7wt4-SgqITKIH4yPcW7-48" edge="1">
          <mxGeometry width="50" height="50" relative="1" as="geometry">
            <mxPoint x="160" y="430" as="sourcePoint" />
            <mxPoint x="210" y="380" as="targetPoint" />
          </mxGeometry>
        </mxCell>
        <mxCell id="s7wt4-SgqITKIH4yPcW7-66" value="" style="endArrow=none;html=1;rounded=0;exitX=1;exitY=0.5;exitDx=0;exitDy=0;entryX=0;entryY=0.3333333333333333;entryDx=0;entryDy=0;entryPerimeter=0;" parent="1" source="s7wt4-SgqITKIH4yPcW7-20" target="s7wt4-SgqITKIH4yPcW7-48" edge="1">
          <mxGeometry width="50" height="50" relative="1" as="geometry">
            <mxPoint x="150" y="400" as="sourcePoint" />
            <mxPoint x="200" y="350" as="targetPoint" />
          </mxGeometry>
        </mxCell>
        <mxCell id="s7wt4-SgqITKIH4yPcW7-67" value="" style="endArrow=none;html=1;rounded=0;exitX=1;exitY=0.5;exitDx=0;exitDy=0;entryX=0;entryY=0.3333333333333333;entryDx=0;entryDy=0;entryPerimeter=0;" parent="1" source="s7wt4-SgqITKIH4yPcW7-21" target="s7wt4-SgqITKIH4yPcW7-48" edge="1">
          <mxGeometry width="50" height="50" relative="1" as="geometry">
            <mxPoint x="190" y="530" as="sourcePoint" />
            <mxPoint x="240" y="480" as="targetPoint" />
          </mxGeometry>
        </mxCell>
        <mxCell id="s7wt4-SgqITKIH4yPcW7-68" value="" style="endArrow=none;html=1;rounded=0;exitX=1;exitY=0.5;exitDx=0;exitDy=0;entryX=0;entryY=0.3333333333333333;entryDx=0;entryDy=0;entryPerimeter=0;" parent="1" source="s7wt4-SgqITKIH4yPcW7-22" target="s7wt4-SgqITKIH4yPcW7-48" edge="1">
          <mxGeometry width="50" height="50" relative="1" as="geometry">
            <mxPoint x="330" y="440" as="sourcePoint" />
            <mxPoint x="380" y="390" as="targetPoint" />
          </mxGeometry>
        </mxCell>
        <mxCell id="s7wt4-SgqITKIH4yPcW7-69" value="" style="endArrow=none;html=1;rounded=0;exitX=1;exitY=0.5;exitDx=0;exitDy=0;entryX=0;entryY=0.3333333333333333;entryDx=0;entryDy=0;entryPerimeter=0;" parent="1" source="s7wt4-SgqITKIH4yPcW7-23" target="s7wt4-SgqITKIH4yPcW7-48" edge="1">
          <mxGeometry width="50" height="50" relative="1" as="geometry">
            <mxPoint x="220" y="470" as="sourcePoint" />
            <mxPoint x="270" y="420" as="targetPoint" />
          </mxGeometry>
        </mxCell>
        <mxCell id="s7wt4-SgqITKIH4yPcW7-70" value="" style="endArrow=none;html=1;rounded=0;exitX=1;exitY=0.5;exitDx=0;exitDy=0;entryX=0;entryY=0.3333333333333333;entryDx=0;entryDy=0;entryPerimeter=0;" parent="1" source="s7wt4-SgqITKIH4yPcW7-24" target="s7wt4-SgqITKIH4yPcW7-49" edge="1">
          <mxGeometry width="50" height="50" relative="1" as="geometry">
            <mxPoint x="211" y="577" as="sourcePoint" />
            <mxPoint x="261" y="527" as="targetPoint" />
          </mxGeometry>
        </mxCell>
        <mxCell id="s7wt4-SgqITKIH4yPcW7-71" value="" style="endArrow=none;html=1;rounded=0;entryX=0;entryY=0.3333333333333333;entryDx=0;entryDy=0;entryPerimeter=0;exitX=1;exitY=0.5;exitDx=0;exitDy=0;" parent="1" source="s7wt4-SgqITKIH4yPcW7-23" target="s7wt4-SgqITKIH4yPcW7-49" edge="1">
          <mxGeometry width="50" height="50" relative="1" as="geometry">
            <mxPoint x="181" y="727" as="sourcePoint" />
            <mxPoint x="231" y="677" as="targetPoint" />
          </mxGeometry>
        </mxCell>
        <mxCell id="s7wt4-SgqITKIH4yPcW7-73" value="Request for Equipment" style="ellipse;whiteSpace=wrap;html=1;" parent="1" vertex="1">
          <mxGeometry y="437" width="110" height="50" as="geometry" />
        </mxCell>
        <mxCell id="s7wt4-SgqITKIH4yPcW7-74" value="View Salary" style="ellipse;whiteSpace=wrap;html=1;" parent="1" vertex="1">
          <mxGeometry y="495" width="110" height="50" as="geometry" />
        </mxCell>
        <mxCell id="s7wt4-SgqITKIH4yPcW7-76" value="" style="endArrow=none;html=1;rounded=0;exitX=1;exitY=0.5;exitDx=0;exitDy=0;" parent="1" source="s7wt4-SgqITKIH4yPcW7-73" edge="1">
          <mxGeometry width="50" height="50" relative="1" as="geometry">
            <mxPoint x="190" y="450" as="sourcePoint" />
            <mxPoint x="290" y="360" as="targetPoint" />
          </mxGeometry>
        </mxCell>
        <mxCell id="s7wt4-SgqITKIH4yPcW7-77" value="" style="endArrow=none;html=1;rounded=0;exitX=1;exitY=0.5;exitDx=0;exitDy=0;entryX=0;entryY=0.3333333333333333;entryDx=0;entryDy=0;entryPerimeter=0;" parent="1" source="s7wt4-SgqITKIH4yPcW7-74" target="s7wt4-SgqITKIH4yPcW7-48" edge="1">
          <mxGeometry width="50" height="50" relative="1" as="geometry">
            <mxPoint x="200" y="570" as="sourcePoint" />
            <mxPoint x="250" y="520" as="targetPoint" />
          </mxGeometry>
        </mxCell>
        <mxCell id="s7wt4-SgqITKIH4yPcW7-78" value="" style="endArrow=none;html=1;rounded=0;exitX=1;exitY=0.5;exitDx=0;exitDy=0;" parent="1" source="s7wt4-SgqITKIH4yPcW7-74" edge="1">
          <mxGeometry width="50" height="50" relative="1" as="geometry">
            <mxPoint x="150" y="700" as="sourcePoint" />
            <mxPoint x="290" y="600" as="targetPoint" />
          </mxGeometry>
        </mxCell>
        <mxCell id="s7wt4-SgqITKIH4yPcW7-79" value="" style="endArrow=none;html=1;rounded=0;exitX=1;exitY=0.5;exitDx=0;exitDy=0;" parent="1" source="s7wt4-SgqITKIH4yPcW7-25" edge="1">
          <mxGeometry width="50" height="50" relative="1" as="geometry">
            <mxPoint x="230" y="710" as="sourcePoint" />
            <mxPoint x="290" y="600" as="targetPoint" />
          </mxGeometry>
        </mxCell>
        <mxCell id="s7wt4-SgqITKIH4yPcW7-80" value="&lt;h4&gt;&lt;b&gt;&lt;font style=&quot;font-size: 19px;&quot;&gt;Gym Management System&lt;/font&gt;&lt;/b&gt;&lt;/h4&gt;" style="text;html=1;align=center;verticalAlign=middle;whiteSpace=wrap;rounded=0;" parent="1" vertex="1">
          <mxGeometry x="-130" y="140" width="240" height="30" as="geometry" />
        </mxCell>
      </root>
    </mxGraphModel>
  </diagram>
</mxfile>
